<mxfile host="app.diagrams.net" modified="2023-04-22T15:59:52.514Z" agent="Mozilla/5.0 (Windows NT 10.0; Win64; x64; rv:109.0) Gecko/20100101 Firefox/112.0" etag="FXMcL5px1lzvAAJYjju1" version="21.2.1" type="device">
  <diagram name="Page-1" id="byq_reNjxhK5hD44MmeP">
    <mxGraphModel dx="1877" dy="1699" grid="1" gridSize="10" guides="1" tooltips="1" connect="1" arrows="1" fold="1" page="1" pageScale="1" pageWidth="827" pageHeight="1169" math="0" shadow="0">
      <root>
        <mxCell id="0" />
        <mxCell id="1" parent="0" />
        <mxCell id="Gf0gcHJ9fhxju2sZu1Ag-28" value="" style="rounded=0;whiteSpace=wrap;html=1;fillColor=none;container=0;" parent="1" vertex="1">
          <mxGeometry x="-800" y="-1160" width="820" height="290" as="geometry" />
        </mxCell>
        <mxCell id="Gf0gcHJ9fhxju2sZu1Ag-3" value="Data collectors" style="rounded=0;whiteSpace=wrap;html=1;fillColor=#6d8764;strokeColor=#3A5431;fontColor=#ffffff;container=0;" parent="1" vertex="1">
          <mxGeometry x="-550" y="-980" width="120" height="40" as="geometry" />
        </mxCell>
        <mxCell id="Gf0gcHJ9fhxju2sZu1Ag-1" value="Friendly Web Service " style="rounded=0;whiteSpace=wrap;html=1;fillColor=#1ba1e2;strokeColor=#006EAF;fontColor=#ffffff;container=0;" parent="1" vertex="1">
          <mxGeometry x="-550" y="-1120" width="120" height="40" as="geometry" />
        </mxCell>
        <mxCell id="Gf0gcHJ9fhxju2sZu1Ag-4" value="Data collectors" style="rounded=0;whiteSpace=wrap;html=1;fillColor=#6d8764;strokeColor=#3A5431;fontColor=#ffffff;container=0;" parent="1" vertex="1">
          <mxGeometry x="-547" y="-977" width="120" height="40" as="geometry" />
        </mxCell>
        <mxCell id="Gf0gcHJ9fhxju2sZu1Ag-5" value="Data collectors" style="rounded=0;whiteSpace=wrap;html=1;fillColor=#6d8764;strokeColor=#3A5431;fontColor=#ffffff;container=0;" parent="1" vertex="1">
          <mxGeometry x="-544" y="-974" width="120" height="40" as="geometry" />
        </mxCell>
        <mxCell id="Gf0gcHJ9fhxju2sZu1Ag-10" style="edgeStyle=orthogonalEdgeStyle;rounded=0;orthogonalLoop=1;jettySize=auto;html=1;entryX=0;entryY=0.75;entryDx=0;entryDy=0;dashed=1;" parent="1" source="Gf0gcHJ9fhxju2sZu1Ag-3" target="Gf0gcHJ9fhxju2sZu1Ag-7" edge="1">
          <mxGeometry relative="1" as="geometry" />
        </mxCell>
        <mxCell id="Gf0gcHJ9fhxju2sZu1Ag-6" value="Data collectors" style="rounded=0;whiteSpace=wrap;html=1;fillColor=#6d8764;strokeColor=#3A5431;fontColor=#ffffff;container=0;" parent="1" vertex="1">
          <mxGeometry x="-541" y="-971" width="120" height="40" as="geometry" />
        </mxCell>
        <mxCell id="Gf0gcHJ9fhxju2sZu1Ag-93" style="edgeStyle=orthogonalEdgeStyle;rounded=0;orthogonalLoop=1;jettySize=auto;html=1;exitX=0.5;exitY=1;exitDx=0;exitDy=0;entryX=0;entryY=0.5;entryDx=0;entryDy=0;" parent="1" source="Gf0gcHJ9fhxju2sZu1Ag-7" target="Gf0gcHJ9fhxju2sZu1Ag-92" edge="1">
          <mxGeometry relative="1" as="geometry" />
        </mxCell>
        <mxCell id="Gf0gcHJ9fhxju2sZu1Ag-7" value="Data analitics" style="rounded=0;whiteSpace=wrap;html=1;fillColor=#e3c800;strokeColor=#B09500;fontColor=#000000;container=0;" parent="1" vertex="1">
          <mxGeometry x="-350" y="-1060" width="120" height="40" as="geometry" />
        </mxCell>
        <mxCell id="Gf0gcHJ9fhxju2sZu1Ag-8" style="edgeStyle=orthogonalEdgeStyle;rounded=0;orthogonalLoop=1;jettySize=auto;html=1;exitX=1;exitY=0.5;exitDx=0;exitDy=0;entryX=0;entryY=0.5;entryDx=0;entryDy=0;dashed=1;" parent="1" source="Gf0gcHJ9fhxju2sZu1Ag-1" target="Gf0gcHJ9fhxju2sZu1Ag-7" edge="1">
          <mxGeometry relative="1" as="geometry" />
        </mxCell>
        <mxCell id="Gf0gcHJ9fhxju2sZu1Ag-22" style="rounded=0;orthogonalLoop=1;jettySize=auto;html=1;exitX=1;exitY=0.5;exitDx=0;exitDy=0;entryX=0;entryY=0.25;entryDx=0;entryDy=0;strokeColor=#D79B00;endArrow=none;endFill=0;" parent="1" source="Gf0gcHJ9fhxju2sZu1Ag-20" target="Gf0gcHJ9fhxju2sZu1Ag-1" edge="1">
          <mxGeometry relative="1" as="geometry" />
        </mxCell>
        <mxCell id="Gf0gcHJ9fhxju2sZu1Ag-20" value="Will provide tourists with information about places, routes, suggest routes, etc" style="rounded=0;whiteSpace=wrap;html=1;dashed=1;dashPattern=1 2;fillColor=#ffe6cc;strokeColor=#d79b00;container=0;" parent="1" vertex="1">
          <mxGeometry x="-770" y="-1130" width="180" height="60" as="geometry" />
        </mxCell>
        <mxCell id="Gf0gcHJ9fhxju2sZu1Ag-21" value="&lt;div&gt;...track interest in places;&lt;/div&gt;&lt;div&gt;...track Geo-location;&lt;br&gt; &lt;/div&gt;" style="rounded=0;whiteSpace=wrap;html=1;dashed=1;dashPattern=1 2;fillColor=#ffe6cc;strokeColor=#d79b00;container=0;" parent="1" vertex="1">
          <mxGeometry x="-770" y="-1070" width="180" height="40" as="geometry" />
        </mxCell>
        <mxCell id="Gf0gcHJ9fhxju2sZu1Ag-24" style="rounded=0;orthogonalLoop=1;jettySize=auto;html=1;exitX=1;exitY=0.25;exitDx=0;exitDy=0;entryX=0;entryY=0.25;entryDx=0;entryDy=0;endArrow=none;endFill=0;strokeColor=#D79B00;" parent="1" source="Gf0gcHJ9fhxju2sZu1Ag-23" target="Gf0gcHJ9fhxju2sZu1Ag-3" edge="1">
          <mxGeometry relative="1" as="geometry" />
        </mxCell>
        <mxCell id="Gf0gcHJ9fhxju2sZu1Ag-23" value="Services will seek and collect information about people&#39;s" style="rounded=0;whiteSpace=wrap;html=1;dashed=1;dashPattern=1 2;fillColor=#ffe6cc;strokeColor=#d79b00;container=0;" parent="1" vertex="1">
          <mxGeometry x="-770" y="-960" width="180" height="60" as="geometry" />
        </mxCell>
        <mxCell id="Gf0gcHJ9fhxju2sZu1Ag-25" value="Service will filter and build reports" style="rounded=0;whiteSpace=wrap;html=1;dashed=1;dashPattern=1 2;fillColor=#ffe6cc;strokeColor=#d79b00;container=0;" parent="1" vertex="1">
          <mxGeometry x="-190" y="-1130" width="180" height="60" as="geometry" />
        </mxCell>
        <mxCell id="Gf0gcHJ9fhxju2sZu1Ag-27" style="rounded=0;orthogonalLoop=1;jettySize=auto;html=1;exitX=1;exitY=0.25;exitDx=0;exitDy=0;entryX=0;entryY=0.25;entryDx=0;entryDy=0;endArrow=none;endFill=0;strokeColor=#D79B00;" parent="1" source="Gf0gcHJ9fhxju2sZu1Ag-7" target="Gf0gcHJ9fhxju2sZu1Ag-25" edge="1">
          <mxGeometry relative="1" as="geometry" />
        </mxCell>
        <mxCell id="Gf0gcHJ9fhxju2sZu1Ag-30" value="Friendly Web Service " style="rounded=0;whiteSpace=wrap;html=1;fillColor=#1ba1e2;strokeColor=#006EAF;fontColor=#ffffff;container=0;" parent="1" vertex="1">
          <mxGeometry x="-790" y="-780" width="120" height="40" as="geometry" />
        </mxCell>
        <mxCell id="Gf0gcHJ9fhxju2sZu1Ag-31" value="Nice website" style="rounded=0;whiteSpace=wrap;html=1;" parent="1" vertex="1">
          <mxGeometry x="-670" y="-780" width="120" height="40" as="geometry" />
        </mxCell>
        <mxCell id="Gf0gcHJ9fhxju2sZu1Ag-32" value="&lt;div align=&quot;left&quot;&gt;&lt;b&gt;Features:&lt;/b&gt;&lt;/div&gt;&lt;div align=&quot;left&quot;&gt;What to see?&lt;/div&gt;&lt;div align=&quot;left&quot;&gt;What is nearby?&lt;/div&gt;&lt;div align=&quot;left&quot;&gt;Create a route&lt;br&gt;&lt;/div&gt;&lt;div align=&quot;left&quot;&gt;Create check-list &lt;br&gt;&lt;/div&gt;" style="rounded=0;whiteSpace=wrap;html=1;align=left;" parent="1" vertex="1">
          <mxGeometry x="-790" y="-740" width="240" height="80" as="geometry" />
        </mxCell>
        <mxCell id="Gf0gcHJ9fhxju2sZu1Ag-33" value="Data collectors" style="rounded=0;whiteSpace=wrap;html=1;fillColor=#6d8764;strokeColor=#3A5431;fontColor=#ffffff;container=0;" parent="1" vertex="1">
          <mxGeometry x="-790" y="-640" width="120" height="40" as="geometry" />
        </mxCell>
        <mxCell id="Gf0gcHJ9fhxju2sZu1Ag-34" value="Extra services" style="rounded=0;whiteSpace=wrap;html=1;" parent="1" vertex="1">
          <mxGeometry x="-670" y="-640" width="120" height="40" as="geometry" />
        </mxCell>
        <mxCell id="Gf0gcHJ9fhxju2sZu1Ag-36" value="Data collectors" style="rounded=0;whiteSpace=wrap;html=1;fillColor=#6d8764;strokeColor=#3A5431;fontColor=#ffffff;container=0;" parent="1" vertex="1">
          <mxGeometry x="-770" y="-600" width="120" height="40" as="geometry" />
        </mxCell>
        <mxCell id="Gf0gcHJ9fhxju2sZu1Ag-37" value="Scan twitter" style="rounded=0;whiteSpace=wrap;html=1;" parent="1" vertex="1">
          <mxGeometry x="-650" y="-600" width="120" height="40" as="geometry" />
        </mxCell>
        <mxCell id="Gf0gcHJ9fhxju2sZu1Ag-41" value="Data collectors" style="rounded=0;whiteSpace=wrap;html=1;fillColor=#6d8764;strokeColor=#3A5431;fontColor=#ffffff;container=0;" parent="1" vertex="1">
          <mxGeometry x="-770" y="-560" width="120" height="40" as="geometry" />
        </mxCell>
        <mxCell id="Gf0gcHJ9fhxju2sZu1Ag-42" value="Scan Instagram" style="rounded=0;whiteSpace=wrap;html=1;" parent="1" vertex="1">
          <mxGeometry x="-650" y="-560" width="120" height="40" as="geometry" />
        </mxCell>
        <mxCell id="Gf0gcHJ9fhxju2sZu1Ag-43" value="Data collectors" style="rounded=0;whiteSpace=wrap;html=1;fillColor=#6d8764;strokeColor=#3A5431;fontColor=#ffffff;container=0;" parent="1" vertex="1">
          <mxGeometry x="-770" y="-520" width="120" height="40" as="geometry" />
        </mxCell>
        <mxCell id="Gf0gcHJ9fhxju2sZu1Ag-44" value="Scan surveillance cams" style="rounded=0;whiteSpace=wrap;html=1;" parent="1" vertex="1">
          <mxGeometry x="-650" y="-520" width="120" height="40" as="geometry" />
        </mxCell>
        <mxCell id="Gf0gcHJ9fhxju2sZu1Ag-45" value="Data collectors" style="rounded=0;whiteSpace=wrap;html=1;fillColor=#6d8764;strokeColor=#3A5431;fontColor=#ffffff;container=0;" parent="1" vertex="1">
          <mxGeometry x="-770" y="-480" width="120" height="40" as="geometry" />
        </mxCell>
        <mxCell id="Gf0gcHJ9fhxju2sZu1Ag-46" value="Collect hotel data" style="rounded=0;whiteSpace=wrap;html=1;" parent="1" vertex="1">
          <mxGeometry x="-650" y="-480" width="120" height="40" as="geometry" />
        </mxCell>
        <mxCell id="Gf0gcHJ9fhxju2sZu1Ag-47" value="Data collectors" style="rounded=0;whiteSpace=wrap;html=1;fillColor=#6d8764;strokeColor=#3A5431;fontColor=#ffffff;container=0;" parent="1" vertex="1">
          <mxGeometry x="-770" y="-440" width="120" height="40" as="geometry" />
        </mxCell>
        <mxCell id="Gf0gcHJ9fhxju2sZu1Ag-48" value="Collect public WiFi data" style="rounded=0;whiteSpace=wrap;html=1;" parent="1" vertex="1">
          <mxGeometry x="-650" y="-440" width="120" height="40" as="geometry" />
        </mxCell>
        <mxCell id="Gf0gcHJ9fhxju2sZu1Ag-54" value="Data collectors" style="rounded=0;whiteSpace=wrap;html=1;fillColor=#6d8764;strokeColor=#3A5431;fontColor=#ffffff;container=0;" parent="1" vertex="1">
          <mxGeometry x="-770" y="-280" width="120" height="40" as="geometry" />
        </mxCell>
        <mxCell id="Gf0gcHJ9fhxju2sZu1Ag-55" value="&lt;i&gt;...etc...&lt;/i&gt;" style="rounded=0;whiteSpace=wrap;html=1;" parent="1" vertex="1">
          <mxGeometry x="-650" y="-280" width="120" height="40" as="geometry" />
        </mxCell>
        <mxCell id="Gf0gcHJ9fhxju2sZu1Ag-58" style="edgeStyle=orthogonalEdgeStyle;rounded=0;orthogonalLoop=1;jettySize=auto;html=1;exitX=0.5;exitY=1;exitDx=0;exitDy=0;entryX=0;entryY=0.5;entryDx=0;entryDy=0;dashed=1;" parent="1" source="Gf0gcHJ9fhxju2sZu1Ag-56" target="Gf0gcHJ9fhxju2sZu1Ag-57" edge="1">
          <mxGeometry relative="1" as="geometry" />
        </mxCell>
        <mxCell id="Gf0gcHJ9fhxju2sZu1Ag-74" style="edgeStyle=orthogonalEdgeStyle;rounded=0;orthogonalLoop=1;jettySize=auto;html=1;exitX=0;exitY=0.25;exitDx=0;exitDy=0;" parent="1" source="Gf0gcHJ9fhxju2sZu1Ag-56" edge="1">
          <mxGeometry relative="1" as="geometry">
            <mxPoint x="-270" y="-389.8888888888889" as="targetPoint" />
          </mxGeometry>
        </mxCell>
        <mxCell id="Gf0gcHJ9fhxju2sZu1Ag-79" style="edgeStyle=orthogonalEdgeStyle;rounded=0;orthogonalLoop=1;jettySize=auto;html=1;exitX=1;exitY=0.5;exitDx=0;exitDy=0;entryX=0;entryY=0.5;entryDx=0;entryDy=0;startArrow=classic;startFill=1;" parent="1" source="Gf0gcHJ9fhxju2sZu1Ag-56" target="Gf0gcHJ9fhxju2sZu1Ag-60" edge="1">
          <mxGeometry relative="1" as="geometry" />
        </mxCell>
        <mxCell id="Gf0gcHJ9fhxju2sZu1Ag-56" value="Friendly Web Service " style="rounded=0;whiteSpace=wrap;html=1;fillColor=#1ba1e2;strokeColor=#006EAF;fontColor=#ffffff;container=0;" parent="1" vertex="1">
          <mxGeometry x="-200" y="-400" width="120" height="40" as="geometry" />
        </mxCell>
        <mxCell id="Gf0gcHJ9fhxju2sZu1Ag-80" style="edgeStyle=orthogonalEdgeStyle;rounded=0;orthogonalLoop=1;jettySize=auto;html=1;exitX=1;exitY=0.5;exitDx=0;exitDy=0;entryX=0;entryY=0.25;entryDx=0;entryDy=0;" parent="1" source="Gf0gcHJ9fhxju2sZu1Ag-57" target="Gf0gcHJ9fhxju2sZu1Ag-62" edge="1">
          <mxGeometry relative="1" as="geometry" />
        </mxCell>
        <mxCell id="Gf0gcHJ9fhxju2sZu1Ag-57" value="&lt;div&gt;Data collector&lt;/div&gt;&lt;div&gt;[Friendly Web]&lt;br&gt;&lt;/div&gt;" style="rounded=0;whiteSpace=wrap;html=1;fillColor=#6d8764;strokeColor=#3A5431;fontColor=#ffffff;container=0;" parent="1" vertex="1">
          <mxGeometry x="-120" y="-320" width="120" height="40" as="geometry" />
        </mxCell>
        <mxCell id="Gf0gcHJ9fhxju2sZu1Ag-84" style="edgeStyle=orthogonalEdgeStyle;rounded=0;orthogonalLoop=1;jettySize=auto;html=1;exitX=1;exitY=0.5;exitDx=0;exitDy=0;entryX=0;entryY=0.5;entryDx=0;entryDy=0;entryPerimeter=0;" parent="1" source="Gf0gcHJ9fhxju2sZu1Ag-60" target="Gf0gcHJ9fhxju2sZu1Ag-83" edge="1">
          <mxGeometry relative="1" as="geometry" />
        </mxCell>
        <mxCell id="Gf0gcHJ9fhxju2sZu1Ag-60" value="Friendly backend" style="rounded=0;whiteSpace=wrap;html=1;" parent="1" vertex="1">
          <mxGeometry x="20" y="-400" width="120" height="40" as="geometry" />
        </mxCell>
        <mxCell id="Gf0gcHJ9fhxju2sZu1Ag-87" style="edgeStyle=orthogonalEdgeStyle;rounded=0;orthogonalLoop=1;jettySize=auto;html=1;exitX=1;exitY=0.75;exitDx=0;exitDy=0;entryX=0;entryY=0.5;entryDx=0;entryDy=0;entryPerimeter=0;" parent="1" source="Gf0gcHJ9fhxju2sZu1Ag-62" target="Gf0gcHJ9fhxju2sZu1Ag-85" edge="1">
          <mxGeometry relative="1" as="geometry" />
        </mxCell>
        <mxCell id="Gf0gcHJ9fhxju2sZu1Ag-88" style="edgeStyle=orthogonalEdgeStyle;rounded=0;orthogonalLoop=1;jettySize=auto;html=1;exitX=1;exitY=0.25;exitDx=0;exitDy=0;entryX=0;entryY=0;entryDx=0;entryDy=52.5;entryPerimeter=0;" parent="1" source="Gf0gcHJ9fhxju2sZu1Ag-62" target="Gf0gcHJ9fhxju2sZu1Ag-83" edge="1">
          <mxGeometry relative="1" as="geometry" />
        </mxCell>
        <mxCell id="Gf0gcHJ9fhxju2sZu1Ag-62" value="Analytics service" style="rounded=0;whiteSpace=wrap;html=1;" parent="1" vertex="1">
          <mxGeometry x="80" y="-290" width="120" height="40" as="geometry" />
        </mxCell>
        <mxCell id="Gf0gcHJ9fhxju2sZu1Ag-70" style="edgeStyle=orthogonalEdgeStyle;rounded=0;orthogonalLoop=1;jettySize=auto;html=1;exitX=0;exitY=0.25;exitDx=0;exitDy=0;entryX=0.88;entryY=0.25;entryDx=0;entryDy=0;entryPerimeter=0;dashed=1;" parent="1" source="Gf0gcHJ9fhxju2sZu1Ag-66" target="Gf0gcHJ9fhxju2sZu1Ag-69" edge="1">
          <mxGeometry relative="1" as="geometry" />
        </mxCell>
        <mxCell id="Gf0gcHJ9fhxju2sZu1Ag-81" style="edgeStyle=orthogonalEdgeStyle;rounded=0;orthogonalLoop=1;jettySize=auto;html=1;entryX=0;entryY=0.75;entryDx=0;entryDy=0;" parent="1" source="Gf0gcHJ9fhxju2sZu1Ag-66" target="Gf0gcHJ9fhxju2sZu1Ag-62" edge="1">
          <mxGeometry relative="1" as="geometry" />
        </mxCell>
        <mxCell id="Gf0gcHJ9fhxju2sZu1Ag-66" value="&lt;div&gt;Data collector&lt;/div&gt;&lt;div&gt;[%Source%]&lt;/div&gt;" style="rounded=0;whiteSpace=wrap;html=1;fillColor=#6d8764;strokeColor=#3A5431;fontColor=#ffffff;container=0;" parent="1" vertex="1">
          <mxGeometry x="-120" y="-260" width="120" height="40" as="geometry" />
        </mxCell>
        <mxCell id="Gf0gcHJ9fhxju2sZu1Ag-69" value="Outer world" style="ellipse;shape=cloud;whiteSpace=wrap;html=1;" parent="1" vertex="1">
          <mxGeometry x="-360" y="-300" width="120" height="80" as="geometry" />
        </mxCell>
        <mxCell id="Gf0gcHJ9fhxju2sZu1Ag-75" style="edgeStyle=orthogonalEdgeStyle;rounded=0;orthogonalLoop=1;jettySize=auto;html=1;entryX=0;entryY=0.5;entryDx=0;entryDy=0;" parent="1" source="Gf0gcHJ9fhxju2sZu1Ag-71" target="Gf0gcHJ9fhxju2sZu1Ag-56" edge="1">
          <mxGeometry relative="1" as="geometry" />
        </mxCell>
        <mxCell id="Gf0gcHJ9fhxju2sZu1Ag-71" value="User" style="shape=umlActor;verticalLabelPosition=bottom;verticalAlign=top;html=1;outlineConnect=0;" parent="1" vertex="1">
          <mxGeometry x="-305" y="-410" width="30" height="60" as="geometry" />
        </mxCell>
        <mxCell id="Gf0gcHJ9fhxju2sZu1Ag-77" style="edgeStyle=orthogonalEdgeStyle;rounded=0;orthogonalLoop=1;jettySize=auto;html=1;exitX=1;exitY=0.25;exitDx=0;exitDy=0;entryX=0.25;entryY=1;entryDx=0;entryDy=0;startArrow=classic;startFill=1;" parent="1" source="Gf0gcHJ9fhxju2sZu1Ag-76" target="Gf0gcHJ9fhxju2sZu1Ag-60" edge="1">
          <mxGeometry relative="1" as="geometry" />
        </mxCell>
        <mxCell id="Gf0gcHJ9fhxju2sZu1Ag-82" style="edgeStyle=orthogonalEdgeStyle;rounded=0;orthogonalLoop=1;jettySize=auto;html=1;exitX=1;exitY=0.5;exitDx=0;exitDy=0;entryX=0.25;entryY=1;entryDx=0;entryDy=0;startArrow=classic;startFill=1;" parent="1" source="Gf0gcHJ9fhxju2sZu1Ag-76" target="Gf0gcHJ9fhxju2sZu1Ag-62" edge="1">
          <mxGeometry relative="1" as="geometry" />
        </mxCell>
        <mxCell id="Gf0gcHJ9fhxju2sZu1Ag-76" value="Admin" style="rounded=0;whiteSpace=wrap;html=1;fillColor=#1ba1e2;strokeColor=#006EAF;fontColor=#ffffff;container=0;" parent="1" vertex="1">
          <mxGeometry x="-200" y="-160" width="120" height="40" as="geometry" />
        </mxCell>
        <mxCell id="Wao2HetKtzQEDg0cU-dO-4" style="rounded=0;orthogonalLoop=1;jettySize=auto;html=1;exitX=1;exitY=0;exitDx=0;exitDy=27.5;exitPerimeter=0;entryX=0;entryY=0.25;entryDx=0;entryDy=0;endArrow=none;endFill=0;strokeColor=#D79B00;" edge="1" parent="1" source="Gf0gcHJ9fhxju2sZu1Ag-83" target="Wao2HetKtzQEDg0cU-dO-3">
          <mxGeometry relative="1" as="geometry" />
        </mxCell>
        <mxCell id="Gf0gcHJ9fhxju2sZu1Ag-83" value="&lt;div&gt;Friendly&lt;/div&gt;&lt;div&gt;DB&lt;br&gt;&lt;/div&gt;" style="shape=cylinder3;whiteSpace=wrap;html=1;boundedLbl=1;backgroundOutline=1;size=15;" parent="1" vertex="1">
          <mxGeometry x="260" y="-420" width="60" height="80" as="geometry" />
        </mxCell>
        <mxCell id="Wao2HetKtzQEDg0cU-dO-2" style="rounded=0;orthogonalLoop=1;jettySize=auto;html=1;exitX=1;exitY=0;exitDx=0;exitDy=52.5;exitPerimeter=0;entryX=0;entryY=0.25;entryDx=0;entryDy=0;endArrow=none;endFill=0;strokeColor=#D79B00;" edge="1" parent="1" source="Gf0gcHJ9fhxju2sZu1Ag-85" target="Wao2HetKtzQEDg0cU-dO-1">
          <mxGeometry relative="1" as="geometry" />
        </mxCell>
        <mxCell id="Gf0gcHJ9fhxju2sZu1Ag-85" value="&lt;div&gt;Analytics&lt;/div&gt;&lt;div&gt;DB&lt;br&gt; &lt;/div&gt;" style="shape=cylinder3;whiteSpace=wrap;html=1;boundedLbl=1;backgroundOutline=1;size=15;" parent="1" vertex="1">
          <mxGeometry x="260" y="-300" width="60" height="80" as="geometry" />
        </mxCell>
        <mxCell id="Gf0gcHJ9fhxju2sZu1Ag-90" style="rounded=0;orthogonalLoop=1;jettySize=auto;html=1;exitX=1;exitY=0.25;exitDx=0;exitDy=0;entryX=0;entryY=0.75;entryDx=0;entryDy=0;strokeColor=#D79B00;endArrow=none;endFill=0;" parent="1" source="Gf0gcHJ9fhxju2sZu1Ag-89" target="Gf0gcHJ9fhxju2sZu1Ag-76" edge="1">
          <mxGeometry relative="1" as="geometry" />
        </mxCell>
        <mxCell id="Gf0gcHJ9fhxju2sZu1Ag-89" value="&lt;div&gt;Edit Friendly Web Service&lt;/div&gt;&lt;div&gt;Request reports&lt;/div&gt;&lt;div&gt;Show hot/cold places on a Google Maps&lt;br&gt;&lt;/div&gt;" style="rounded=0;whiteSpace=wrap;html=1;dashed=1;dashPattern=1 2;fillColor=#ffe6cc;strokeColor=#d79b00;container=0;" parent="1" vertex="1">
          <mxGeometry x="-460" y="-110" width="227" height="60" as="geometry" />
        </mxCell>
        <mxCell id="Gf0gcHJ9fhxju2sZu1Ag-92" value="Reports" style="rounded=0;whiteSpace=wrap;html=1;" parent="1" vertex="1">
          <mxGeometry x="-160" y="-960" width="120" height="40" as="geometry" />
        </mxCell>
        <mxCell id="Wao2HetKtzQEDg0cU-dO-1" value="Big data" style="rounded=0;whiteSpace=wrap;html=1;dashed=1;dashPattern=1 2;fillColor=#ffe6cc;strokeColor=#d79b00;container=0;" vertex="1" parent="1">
          <mxGeometry x="360" y="-240" width="180" height="60" as="geometry" />
        </mxCell>
        <mxCell id="Wao2HetKtzQEDg0cU-dO-3" value="Static information" style="rounded=0;whiteSpace=wrap;html=1;dashed=1;dashPattern=1 2;fillColor=#ffe6cc;strokeColor=#d79b00;container=0;" vertex="1" parent="1">
          <mxGeometry x="360" y="-460" width="180" height="60" as="geometry" />
        </mxCell>
        <mxCell id="Wao2HetKtzQEDg0cU-dO-5" value="Data collectors" style="rounded=0;whiteSpace=wrap;html=1;fillColor=#6d8764;strokeColor=#3A5431;fontColor=#ffffff;container=0;" vertex="1" parent="1">
          <mxGeometry x="-770" y="-400" width="120" height="40" as="geometry" />
        </mxCell>
        <mxCell id="Wao2HetKtzQEDg0cU-dO-6" value="On-site QR codes" style="rounded=0;whiteSpace=wrap;html=1;" vertex="1" parent="1">
          <mxGeometry x="-650" y="-400" width="120" height="40" as="geometry" />
        </mxCell>
        <mxCell id="Wao2HetKtzQEDg0cU-dO-7" value="Data collectors" style="rounded=0;whiteSpace=wrap;html=1;fillColor=#6d8764;strokeColor=#3A5431;fontColor=#ffffff;container=0;" vertex="1" parent="1">
          <mxGeometry x="-770" y="-360" width="120" height="40" as="geometry" />
        </mxCell>
        <mxCell id="Wao2HetKtzQEDg0cU-dO-8" value="Collect mobile operators data" style="rounded=0;whiteSpace=wrap;html=1;" vertex="1" parent="1">
          <mxGeometry x="-650" y="-360" width="120" height="40" as="geometry" />
        </mxCell>
        <mxCell id="Wao2HetKtzQEDg0cU-dO-9" value="Data collectors" style="rounded=0;whiteSpace=wrap;html=1;fillColor=#6d8764;strokeColor=#3A5431;fontColor=#ffffff;container=0;" vertex="1" parent="1">
          <mxGeometry x="-770" y="-320" width="120" height="40" as="geometry" />
        </mxCell>
        <mxCell id="Wao2HetKtzQEDg0cU-dO-10" value="On-site iBeacons " style="rounded=0;whiteSpace=wrap;html=1;" vertex="1" parent="1">
          <mxGeometry x="-650" y="-320" width="120" height="40" as="geometry" />
        </mxCell>
      </root>
    </mxGraphModel>
  </diagram>
</mxfile>
